<?xml version="1.0" encoding="UTF-8" standalone="no"?>
<svg width="200" height="200" viewBox="0 0 200 200" fill="none" version="1.1" id="svg42"
     xmlns="http://www.w3.org/2000/svg">
    <defs id="defs46"/>
    <path id="rect18"
          d="M 20,0 C 8.92,0 0,8.92 0,20 v 160 c 0,11.08 8.92,20 20,20 h 160 c 11.08,0 20,-8.92 20,-20 V 20 C 200,8.92 191.08,0 180,0 Z m 25.00195,46.001953 c 6.98589,-0.143225 27.76633,8.102414 38.42969,22.691406 1.51396,0.410749 3.12308,1.014911 4.93555,1.867188 -4.616,-3.5019 -7.18892,-10.50291 -9.29492,-13.537109 11.886,0.894199 21.87607,6.061237 26.20507,8.835937 l -1.62304,-6.662109 c 5.577,1.6832 8.35678,4.617993 14.42578,6.871093 0.0854,0.03171 0.18401,0.0554 0.27148,0.08594 11.08281,-13.002844 29.8577,-20.287043 36.42774,-20.152344 0.76395,0.01566 1.36315,0.130789 1.76562,0.349609 4.46708,2.428827 2.12466,29.875642 -5.97851,46.291016 6.59906,14.11633 9.45407,29.54674 7.71289,46.5957 -9.008,6.289 -19.09432,11.06419 -29.82032,14.11719 -2.415,-3.059 -4.54981,-6.30699 -6.38281,-9.70899 3.491,-1.231 6.86131,-2.75006 10.07031,-4.53906 -0.834,-0.533 -1.65884,-1.129 -2.46484,-1.75 -18.872,8.379 -40.71589,8.379 -59.58789,0 -0.797,0.578 -1.62184,1.173 -2.46484,1.75 3.203,1.786 6.56578,3.30225 10.05078,4.53125 -1.835,3.402 -3.96981,6.6528 -6.38281,9.7168 -10.717,-3.065 -20.79769,-7.842 -29.80469,-14.125 -0.817,-8.101 -0.6521,-16.25003 0.7539,-24.45703 0.473,-6.291 2.25621,-12.23243 5.28321,-18.269532 0.52522,-1.270841 1.10452,-2.545464 1.70508,-3.820312 C 41.11476,76.272992 38.76551,48.782423 43.23633,46.351564 43.6388,46.132743 44.238,46.017618 45.00195,46.001955 Z"
          style="fill:#ff6600"/>
</svg>
